<svg width="25" height="33" viewBox="0 0 25 33" fill="white" xmlns="http://www.w3.org/2000/svg">
<path d="M1.31579 30.1668L6.03947 24.0099H21.0526C21.7506 24.0099 22.4199 23.6486 22.9134 23.0053C23.407 22.3621 23.6842 21.4896 23.6842 20.5799V5.14498C23.6842 4.23529 23.407 3.36286 22.9134 2.71962C22.4199 2.07637 21.7506 1.71499 21.0526 1.71499H3.94737C3.24943 1.71499 2.58008 2.07637 2.08656 2.71962C1.59304 3.36286 1.31579 4.23529 1.31579 5.14498V30.1668ZM1.31579 32.5849H0V5.14498C0 3.78045 0.415882 2.4718 1.15616 1.50693C1.89643 0.542059 2.90046 0 3.94737 0H21.0526C22.0995 0 23.1036 0.542059 23.8438 1.50693C24.5841 2.4718 25 3.78045 25 5.14498V20.5799C25 21.9445 24.5841 23.2531 23.8438 24.218C23.1036 25.1829 22.0995 25.7249 21.0526 25.7249H6.57895L1.31579 32.5849Z" fill="#7D7373"/>
</svg>
