<svg width="30" height="38" viewBox="0 0 30 38" fill="none" xmlns="http://www.w3.org/2000/svg">
<path d="M14.85 11.2924C14.85 11.0845 14.7225 10.9144 14.5687 10.9144H7.63125C7.4775 10.9144 7.35 11.0845 7.35 11.2924V13.5603C7.35 13.7682 7.4775 13.9383 7.63125 13.9383H14.5687C14.7225 13.9383 14.85 13.7682 14.85 13.5603V11.2924ZM22.1587 11.0042L14.9588 18.6111C14.8162 18.7623 14.8162 19.0411 14.9588 19.1923L22.1587 26.7945C22.2022 26.8411 22.2554 26.8709 22.3119 26.8806C22.3685 26.8902 22.426 26.8792 22.4777 26.8489C22.5294 26.8185 22.5732 26.7701 22.6037 26.7094C22.6342 26.6487 22.6503 26.5782 22.65 26.5063V23.5438C22.65 23.4304 22.6125 23.3265 22.5412 23.2556L18.4237 18.8993L22.5412 14.5431C22.5748 14.5077 22.6018 14.4637 22.6206 14.4139C22.6394 14.3642 22.6494 14.3099 22.65 14.2548V11.2924C22.65 10.9711 22.3537 10.7963 22.1587 11.0042ZM1.2 37.7986H28.8C29.4638 37.7986 30 37.1229 30 36.2866V1.51203C30 0.675739 29.4638 9.15527e-05 28.8 9.15527e-05H1.2C0.536249 9.15527e-05 -1.90735e-06 0.675739 -1.90735e-06 1.51203V36.2866C-1.90735e-06 37.1229 0.536249 37.7986 1.2 37.7986ZM2.7 3.40196H27.3V34.3967H2.7V3.40196Z" fill="#7D7373"/>
</svg>
