<svg width="38" height="38" viewBox="0 0 38 38" fill="none" xmlns="http://www.w3.org/2000/svg">
<path d="M31.6667 9.50008C32.585 9.50008 33.3292 9.81675 33.915 10.4342C34.5167 11.0834 34.8333 11.7959 34.8333 12.6667V30.0834C34.8333 30.9542 34.5167 31.6667 33.915 32.3159C33.3292 32.9334 32.585 33.2501 31.6667 33.2501H6.33332C5.41499 33.2501 4.67082 32.9334 4.08499 32.3159C3.48332 31.6667 3.16666 30.9542 3.16666 30.0834V12.6667C3.16666 11.7959 3.48332 11.0834 4.08499 10.4342C4.67082 9.81675 5.41499 9.50008 6.33332 9.50008H12.6667V6.33341C12.6667 5.41508 12.9833 4.67091 13.585 4.08508C14.1708 3.48341 14.915 3.16675 15.8333 3.16675H22.1667C23.085 3.16675 23.8292 3.48341 24.415 4.08508C25.0167 4.67091 25.3333 5.41508 25.3333 6.33341V9.50008H31.6667ZM6.33332 12.6667V30.0834H31.6667V12.6667H6.33332ZM22.1667 9.50008V6.33341H15.8333V9.50008H22.1667Z" fill="#7D7373"/>
</svg>
