<svg width="33" height="31" viewBox="0 0 33 31" fill="none" xmlns="http://www.w3.org/2000/svg">
<path d="M10.9375 2.1875C12.0191 2.1875 13.0764 2.50824 13.9758 3.10915C14.8751 3.71006 15.576 4.56417 15.99 5.56345C16.4039 6.56273 16.5122 7.66232 16.3012 8.72315C16.0902 9.78398 15.5693 10.7584 14.8045 11.5232C14.0397 12.2881 13.0652 12.8089 12.0044 13.0199C10.9436 13.2309 9.84398 13.1226 8.8447 12.7087C7.84542 12.2948 6.99131 11.5939 6.3904 10.6945C5.78949 9.79519 5.46875 8.73787 5.46875 7.65625C5.46875 6.20585 6.04492 4.81485 7.07051 3.78926C8.0961 2.76367 9.4871 2.1875 10.9375 2.1875ZM10.9375 0C9.42324 0 7.94298 0.449031 6.68392 1.29031C5.42485 2.13159 4.44353 3.32733 3.86405 4.72633C3.28456 6.12533 3.13294 7.66474 3.42836 9.14991C3.72378 10.6351 4.45297 11.9993 5.52371 13.07C6.59446 14.1408 7.95867 14.87 9.44384 15.1654C10.929 15.4608 12.4684 15.3092 13.8674 14.7297C15.2664 14.1502 16.4622 13.1689 17.3034 11.9098C18.1447 10.6508 18.5938 9.17051 18.5938 7.65625C18.5938 5.62569 17.7871 3.67829 16.3513 2.24246C14.9155 0.806638 12.9681 0 10.9375 0ZM21.875 30.625H19.6875V25.1562C19.6875 23.7058 19.1113 22.3148 18.0857 21.2893C17.0602 20.2637 15.6692 19.6875 14.2188 19.6875H7.65625C6.20585 19.6875 4.81485 20.2637 3.78926 21.2893C2.76367 22.3148 2.1875 23.7058 2.1875 25.1562V30.625H0V25.1562C0 23.1257 0.806638 21.1783 2.24246 19.7425C3.67829 18.3066 5.62569 17.5 7.65625 17.5H14.2188C16.2493 17.5 18.1967 18.3066 19.6325 19.7425C21.0684 21.1783 21.875 23.1257 21.875 25.1562V30.625ZM21.875 2.1875H32.8125V4.375H21.875V2.1875ZM21.875 7.65625H32.8125V9.84375H21.875V7.65625ZM21.875 13.125H29.5312V15.3125H21.875V13.125Z" fill="currentColor"/>
</svg>
